<svg width="23" height="25" viewBox="0 0 23 25" fill="none" xmlns="http://www.w3.org/2000/svg">
<path d="M2.83333 21.9583H7.08333V14.875C7.08333 14.4736 7.21933 14.1374 7.49133 13.8663C7.76333 13.5953 8.09956 13.4593 8.5 13.4583H14.1667C14.5681 13.4583 14.9048 13.5943 15.1768 13.8663C15.4488 14.1383 15.5843 14.4746 15.5833 14.875V21.9583H19.8333V9.20833L11.3333 2.83333L2.83333 9.20833V21.9583ZM0 21.9583V9.20833C0 8.75972 0.100583 8.33472 0.30175 7.93333C0.502916 7.53195 0.780111 7.20139 1.13333 6.94167L9.63333 0.566667C10.1292 0.188889 10.6958 0 11.3333 0C11.9708 0 12.5375 0.188889 13.0333 0.566667L21.5333 6.94167C21.8875 7.20139 22.1652 7.53195 22.3663 7.93333C22.5675 8.33472 22.6676 8.75972 22.6667 9.20833V21.9583C22.6667 22.7375 22.389 23.4048 21.8337 23.9601C21.2783 24.5154 20.6116 24.7926 19.8333 24.7917H14.1667C13.7653 24.7917 13.4291 24.6557 13.158 24.3837C12.8869 24.1117 12.7509 23.7754 12.75 23.375V16.2917H9.91667V23.375C9.91667 23.7764 9.78067 24.1131 9.50867 24.3851C9.23667 24.6571 8.90044 24.7926 8.5 24.7917H2.83333C2.05417 24.7917 1.38739 24.5145 0.833 23.9601C0.278611 23.4057 0.000944445 22.7384 0 21.9583Z" fill="black"/>
</svg>
