<svg width="30" height="30" viewBox="0 0 30 30" fill="none" xmlns="http://www.w3.org/2000/svg">
<circle cx="15" cy="15" r="14.5" fill="white" stroke="white"/>
<g opacity="0.8">
<rect width="20" height="20" transform="translate(5 6)" fill="white"/>
<path d="M15.0003 23.5002L13.792 22.4168C12.3892 21.1529 11.2295 20.0627 10.3128 19.146C9.39616 18.2293 8.66699 17.4099 8.12533 16.6877C7.58366 15.9516 7.20171 15.2779 6.97949 14.6668C6.77116 14.0557 6.66699 13.4307 6.66699 12.7918C6.66699 11.4863 7.10449 10.396 7.97949 9.521C8.85449 8.646 9.94477 8.2085 11.2503 8.2085C11.9725 8.2085 12.66 8.36127 13.3128 8.66683C13.9656 8.97239 14.5281 9.40294 15.0003 9.9585C15.4725 9.40294 16.035 8.97239 16.6878 8.66683C17.3406 8.36127 18.0281 8.2085 18.7503 8.2085C20.0559 8.2085 21.1462 8.646 22.0212 9.521C22.8962 10.396 23.3337 11.4863 23.3337 12.7918C23.3337 13.4307 23.2225 14.0557 23.0003 14.6668C22.792 15.2779 22.417 15.9516 21.8753 16.6877C21.3337 17.4099 20.6045 18.2293 19.6878 19.146C18.7712 20.0627 17.6114 21.1529 16.2087 22.4168L15.0003 23.5002ZM15.0003 21.2502C16.3337 20.0557 17.4309 19.0349 18.292 18.1877C19.1531 17.3266 19.8337 16.5835 20.3337 15.9585C20.8337 15.3196 21.1809 14.7571 21.3753 14.271C21.5698 13.771 21.667 13.2779 21.667 12.7918C21.667 11.9585 21.3892 11.2641 20.8337 10.7085C20.2781 10.1529 19.5837 9.87516 18.7503 9.87516C18.0975 9.87516 17.4934 10.0627 16.9378 10.4377C16.3823 10.7988 15.2088 12.4308 15.0005 13.0002C14.7922 12.4308 13.6184 10.7988 13.0628 10.4377C12.5073 10.0627 11.9031 9.87516 11.2503 9.87516C10.417 9.87516 9.72255 10.1529 9.16699 10.7085C8.61144 11.2641 8.33366 11.9585 8.33366 12.7918C8.33366 13.2779 8.43088 13.771 8.62533 14.271C8.81977 14.7571 9.16699 15.3196 9.66699 15.9585C10.167 16.5835 10.8475 17.3266 11.7087 18.1877C12.5698 19.0349 13.667 20.0557 15.0003 21.2502Z" fill="black"/>
</g>
</svg>
