<svg width="27" height="30" viewBox="0 0 27 30" fill="none" xmlns="http://www.w3.org/2000/svg">
<path d="M22.0256 25.7351L14.9459 18.0145C14.384 18.5047 13.7378 18.8928 13.0074 19.1787C12.2769 19.4647 11.4997 19.6076 10.6756 19.6076C8.63405 19.6076 6.90627 18.8366 5.4922 17.2945C4.07813 15.7525 3.37109 13.8683 3.37109 11.642C3.37109 9.41565 4.07813 7.53146 5.4922 5.98938C6.90627 4.44731 8.63405 3.67627 10.6756 3.67627C12.7171 3.67627 14.4449 4.44731 15.8589 5.98938C17.273 7.53146 17.98 9.41565 17.98 11.642C17.98 12.5406 17.8489 13.3883 17.5867 14.1848C17.3245 14.9814 16.9686 15.6861 16.5191 16.2988L23.5988 24.0194L22.0256 25.7351ZM10.6756 17.1567C12.0803 17.1567 13.2743 16.6205 14.2576 15.5482C15.2409 14.4759 15.7325 13.1738 15.7325 11.642C15.7325 10.1101 15.2409 8.80801 14.2576 7.73571C13.2743 6.6634 12.0803 6.12725 10.6756 6.12725C9.27085 6.12725 8.07686 6.6634 7.09356 7.73571C6.11027 8.80801 5.61862 10.1101 5.61862 11.642C5.61862 13.1738 6.11027 14.4759 7.09356 15.5482C8.07686 16.6205 9.27085 17.1567 10.6756 17.1567Z" fill="white"/>
</svg>
