<svg width="44" height="29" viewBox="0 0 44 29" fill="none" xmlns="http://www.w3.org/2000/svg">
<path d="M14.4997 14.5002C13.1705 14.5002 12.0327 14.0269 11.0861 13.0804C10.1396 12.1338 9.66634 10.996 9.66634 9.66683C9.66634 8.33766 10.1396 7.19982 11.0861 6.25329C12.0327 5.30676 13.1705 4.8335 14.4997 4.8335C15.8288 4.8335 16.9667 5.30676 17.9132 6.25329C18.8597 7.19982 19.333 8.33766 19.333 9.66683C19.333 10.996 18.8597 12.1338 17.9132 13.0804C16.9667 14.0269 15.8288 14.5002 14.4997 14.5002ZM4.83301 24.1668V20.7835C4.83301 20.0988 5.00922 19.4694 5.36165 18.8955C5.71408 18.3215 6.18231 17.8835 6.76634 17.5814C8.01495 16.9571 9.2837 16.4889 10.5726 16.1767C11.8615 15.8646 13.1705 15.7085 14.4997 15.7085C15.8288 15.7085 17.1379 15.8646 18.4268 16.1767C19.7156 16.4889 20.9844 16.9571 22.233 17.5814C22.817 17.8835 23.2853 18.3215 23.6377 18.8955C23.9901 19.4694 24.1663 20.0988 24.1663 20.7835V24.1668H4.83301ZM7.24967 21.7502H21.7497V20.7835C21.7497 20.562 21.6943 20.3606 21.5835 20.1793C21.4728 19.9981 21.3268 19.8571 21.1455 19.7564C20.058 19.2127 18.9604 18.8049 17.8528 18.533C16.7452 18.2611 15.6275 18.1252 14.4997 18.1252C13.3719 18.1252 12.2542 18.2611 11.1465 18.533C10.0389 18.8049 8.94134 19.2127 7.85384 19.7564C7.67259 19.8571 7.52658 19.9981 7.41582 20.1793C7.30506 20.3606 7.24967 20.562 7.24967 20.7835V21.7502ZM14.4997 12.0835C15.1643 12.0835 15.7332 11.8469 16.2064 11.3736C16.6797 10.9003 16.9163 10.3314 16.9163 9.66683C16.9163 9.00225 16.6797 8.43332 16.2064 7.96006C15.7332 7.48679 15.1643 7.25016 14.4997 7.25016C13.8351 7.25016 13.2662 7.48679 12.7929 7.96006C12.3196 8.43332 12.083 9.00225 12.083 9.66683C12.083 10.3314 12.3196 10.9003 12.7929 11.3736C13.2662 11.8469 13.8351 12.0835 14.4997 12.0835Z" fill="#1D1B20"/>
<path d="M32 16C30.9 16 29.9583 15.6083 29.175 14.825C28.3917 14.0417 28 13.1 28 12C28 10.9 28.3917 9.95833 29.175 9.175C29.9583 8.39167 30.9 8 32 8C33.1 8 34.0417 8.39167 34.825 9.175C35.6083 9.95833 36 10.9 36 12C36 13.1 35.6083 14.0417 34.825 14.825C34.0417 15.6083 33.1 16 32 16ZM24 24V21.2C24 20.6333 24.1458 20.1125 24.4375 19.6375C24.7292 19.1625 25.1167 18.8 25.6 18.55C26.6333 18.0333 27.6833 17.6458 28.75 17.3875C29.8167 17.1292 30.9 17 32 17C33.1 17 34.1833 17.1292 35.25 17.3875C36.3167 17.6458 37.3667 18.0333 38.4 18.55C38.8833 18.8 39.2708 19.1625 39.5625 19.6375C39.8542 20.1125 40 20.6333 40 21.2V24H24ZM26 22H38V21.2C38 21.0167 37.9542 20.85 37.8625 20.7C37.7708 20.55 37.65 20.4333 37.5 20.35C36.6 19.9 35.6917 19.5625 34.775 19.3375C33.8583 19.1125 32.9333 19 32 19C31.0667 19 30.1417 19.1125 29.225 19.3375C28.3083 19.5625 27.4 19.9 26.5 20.35C26.35 20.4333 26.2292 20.55 26.1375 20.7C26.0458 20.85 26 21.0167 26 21.2V22ZM32 14C32.55 14 33.0208 13.8042 33.4125 13.4125C33.8042 13.0208 34 12.55 34 12C34 11.45 33.8042 10.9792 33.4125 10.5875C33.0208 10.1958 32.55 10 32 10C31.45 10 30.9792 10.1958 30.5875 10.5875C30.1958 10.9792 30 11.45 30 12C30 12.55 30.1958 13.0208 30.5875 13.4125C30.9792 13.8042 31.45 14 32 14Z" fill="#1D1B20"/>
</svg>
