<svg width="24" height="21" viewBox="0 0 24 21" fill="none" xmlns="http://www.w3.org/2000/svg">
<path d="M6.16667 10.5H17M15.9167 0.75C18.4506 0.75 19.717 0.75 20.6422 1.33067C21.1248 1.63383 21.5328 2.04189 21.836 2.5245C22.4167 3.44967 22.4167 4.715 22.4167 7.25C22.4167 9.785 22.4167 11.0503 21.8349 11.9755C21.5322 12.4575 21.125 12.8651 20.6433 13.1683C19.7159 13.75 18.4495 13.75 15.9167 13.75H7.25C4.71608 13.75 3.44967 13.75 2.5245 13.1683C2.04213 12.8657 1.63409 12.4584 1.33067 11.9766C0.75 11.0493 0.75 9.78283 0.75 7.25C0.75 4.71717 0.75 3.44967 1.33067 2.5245C1.63383 2.04189 2.04189 1.63383 2.5245 1.33067C3.44967 0.75 4.715 0.75 7.25 0.75H15.9167Z" stroke="black" stroke-width="1.5" stroke-linecap="round"/>
<path d="M18.083 5.08301H18.092" stroke="black" stroke-width="2" stroke-linecap="round" stroke-linejoin="round"/>
<path d="M5.94967 17C5.94967 17 6.81634 19.0313 5.08301 20.25M17.2163 17C17.2163 17 16.3497 19.0313 18.083 20.25M11.583 17V20.25" stroke="black" stroke-width="1.5" stroke-linecap="round" stroke-linejoin="round"/>
</svg>
