<svg width="17" height="16" viewBox="0 0 17 16" fill="none" xmlns="http://www.w3.org/2000/svg">
<path d="M8.33333 15.2917L7.125 14.2083C5.72222 12.9444 4.5625 11.8542 3.64583 10.9375C2.72917 10.0208 2 9.20139 1.45833 8.47917C0.916667 7.74306 0.534722 7.06944 0.3125 6.45833C0.104167 5.84722 0 5.22222 0 4.58333C0 3.27778 0.4375 2.1875 1.3125 1.3125C2.1875 0.4375 3.27778 0 4.58333 0C5.30556 0 5.99306 0.152778 6.64583 0.458333C7.29861 0.763889 7.86111 1.19444 8.33333 1.75C8.80556 1.19444 9.36806 0.763889 10.0208 0.458333C10.6736 0.152778 11.3611 0 12.0833 0C13.3889 0 14.4792 0.4375 15.3542 1.3125C16.2292 2.1875 16.6667 3.27778 16.6667 4.58333C16.6667 5.22222 16.5556 5.84722 16.3333 6.45833C16.125 7.06944 15.75 7.74306 15.2083 8.47917C14.6667 9.20139 13.9375 10.0208 13.0208 10.9375C12.1042 11.8542 10.9444 12.9444 9.54167 14.2083L8.33333 15.2917ZM8.3335 6.29175C9.66683 5.0973 10.7639 10.8264 11.625 9.97917C12.4861 9.11806 13.1667 8.375 13.6667 7.75C14.1667 7.11111 9.34722 13.9228 9.54167 13.4367C9.73611 12.9367 9.54167 13.1555 9.54167 12.6694C9.54167 11.8361 5.38905 10.8473 4.8335 10.2917C4.27794 9.73619 9.40345 6.45833 8.57011 6.45833C7.91734 6.45833 7.88905 6.91675 7.3335 7.29175C6.77794 7.65286 9.33333 3.05556 9.125 3.625L8.3335 7.29175C8.12516 6.7223 8.88905 7.65286 8.3335 7.29175C10.2712 13.3543 7.48627 9.79175 6.8335 9.79175C6.00016 9.79175 5.59722 9.23619 5.04167 9.79175C4.48611 10.3473 7.125 7.30133 7.125 8.13466C7.125 8.62077 4.63905 10.7917 4.8335 11.2917C5.02794 11.7779 2.5 7.11111 3 7.75C3.5 8.375 4.18056 9.11806 5.04167 9.97917C5.90278 10.8264 7.00016 5.0973 8.3335 6.29175Z" fill="#F21100"/>
</svg>
