<svg width="17" height="16" viewBox="0 0 17 16" fill="none" xmlns="http://www.w3.org/2000/svg">
<path d="M8.33333 15.2917L7.125 14.2083C5.72222 12.9444 4.5625 11.8542 3.64583 10.9375C2.72917 10.0208 2 9.20139 1.45833 8.47917C0.916667 7.74306 0.534722 7.06944 0.3125 6.45833C0.104167 5.84722 0 5.22222 0 4.58333C0 3.27778 0.4375 2.1875 1.3125 1.3125C2.1875 0.4375 3.27778 0 4.58333 0C5.30556 0 5.99306 0.152778 6.64583 0.458333C7.29861 0.763889 7.86111 1.19444 8.33333 1.75C8.80556 1.19444 9.36806 0.763889 10.0208 0.458333C10.6736 0.152778 11.3611 0 12.0833 0C13.3889 0 14.4792 0.4375 15.3542 1.3125C16.2292 2.1875 16.6667 3.27778 16.6667 4.58333C16.6667 5.22222 16.5556 5.84722 16.3333 6.45833C16.125 7.06944 15.75 7.74306 15.2083 8.47917C14.6667 9.20139 13.9375 10.0208 13.0208 10.9375C12.1042 11.8542 10.9444 12.9444 9.54167 14.2083L8.33333 15.2917ZM8.33333 13.0417C9.66667 11.8472 10.7639 10.8264 11.625 9.97917C12.4861 9.11806 13.1667 8.375 13.6667 7.75C14.1667 7.11111 14.5139 6.54861 14.7083 6.0625C14.9028 5.5625 15 5.06945 15 4.58333C15 3.75 14.7222 3.05556 14.1667 2.5C13.6111 1.94445 12.9167 1.66667 12.0833 1.66667C11.4306 1.66667 10.8264 1.85417 10.2708 2.22917C9.71528 2.59028 8.54183 4.2223 8.3335 4.79175C8.12516 4.2223 6.95139 2.59028 6.39583 2.22917C5.84028 1.85417 5.23611 1.66667 4.58333 1.66667C3.75 1.66667 3.05556 1.94445 2.5 2.5C1.94444 3.05556 1.66667 3.75 1.66667 4.58333C1.66667 5.06945 1.76389 5.5625 1.95833 6.0625C2.15278 6.54861 2.5 7.11111 3 7.75C3.5 8.375 4.18056 9.11806 5.04167 9.97917C5.90278 10.8264 7 11.8472 8.33333 13.0417Z" fill="black"/>
</svg>
