<svg width="30" height="30" viewBox="0 0 30 30" fill="none" xmlns="http://www.w3.org/2000/svg">
<circle cx="15" cy="15" r="14.5" fill="white" stroke="white"/>
<g opacity="0.8">
<rect width="20" height="20" transform="translate(4.99982 6)" fill="white"/>
<path d="M14.9998 23.5002L13.7915 22.4168C12.3887 21.1529 11.229 20.0627 10.3123 19.146C9.39567 18.2293 8.6665 17.4099 8.12484 16.6877C7.58317 15.9516 7.20123 15.2779 6.979 14.6668C6.77067 14.0557 6.6665 13.4307 6.6665 12.7918C6.6665 11.4863 7.104 10.396 7.979 9.521C8.854 8.646 9.94428 8.2085 11.2498 8.2085C11.9721 8.2085 12.6596 8.36127 13.3123 8.66683C13.9651 8.97239 14.5276 9.40294 14.9998 9.9585C15.4721 9.40294 16.0346 8.97239 16.6873 8.66683C17.3401 8.36127 18.0276 8.2085 18.7498 8.2085C20.0554 8.2085 21.1457 8.646 22.0207 9.521C22.8957 10.396 23.3332 11.4863 23.3332 12.7918C23.3332 13.4307 23.2221 14.0557 22.9998 14.6668C22.7915 15.2779 22.4165 15.9516 21.8748 16.6877C21.3332 17.4099 20.604 18.2293 19.6873 19.146C18.7707 20.0627 17.6109 21.1529 16.2082 22.4168L14.9998 23.5002ZM15 14.5002C16.3333 13.3058 17.4304 19.0349 18.2915 18.1877C19.1526 17.3266 19.8332 16.5835 20.3332 15.9585C20.8332 15.3196 16.0137 22.1313 16.2082 21.6452C16.4026 21.1452 16.2082 21.364 16.2082 20.8779C16.2082 20.0446 12.0556 19.0558 11.5 18.5002C10.9444 17.9447 16.07 14.6668 15.2366 14.6668C14.5838 14.6668 14.5556 15.1252 14 15.5002C13.4444 15.8614 15.9998 11.2641 15.7915 11.8335L15 15.5002C14.7917 14.9308 15.5556 15.8614 15 15.5002C16.9377 21.5628 14.1528 18.0002 13.5 18.0002C12.6667 18.0002 12.2637 17.4447 11.7082 18.0002C11.1526 18.5558 13.7915 15.5098 13.7915 16.3432C13.7915 16.8293 11.3056 19.0002 11.5 19.5002C11.6944 19.9864 9.1665 15.3196 9.6665 15.9585C10.1665 16.5835 10.8471 17.3266 11.7082 18.1877C12.5693 19.0349 13.6667 13.3058 15 14.5002Z" fill="#F21100"/>
</g>
</svg>
