<svg width="30" height="31" viewBox="0 0 30 31" fill="none" xmlns="http://www.w3.org/2000/svg">
<path opacity="0.987" fill-rule="evenodd" clip-rule="evenodd" d="M13.0358 0.132891C14.6217 -0.0442969 15.5602 -0.0442969 17.2642 0.132891C20.2806 0.579349 23.0769 1.97364 25.2486 4.11414C23.7811 5.50131 22.3328 6.90874 20.9042 8.33601C18.1684 6.01726 15.1146 5.48206 11.743 6.73039C9.26964 7.86789 7.54734 9.71122 6.57609 12.2604C4.98893 11.0788 3.42245 9.86963 1.87734 8.63351C1.76997 8.57699 1.64732 8.5563 1.52734 8.57445C3.98172 3.84216 7.81714 1.02758 13.0336 0.130703" fill="#F44336"/>
<path opacity="0.997" fill-rule="evenodd" clip-rule="evenodd" d="M1.52305 8.57436C1.64701 8.5554 1.76441 8.57509 1.87524 8.63342C3.42034 9.86953 4.98683 11.0787 6.57399 12.2603C6.32423 13.2535 6.16679 14.2678 6.10368 15.29C6.15763 16.2787 6.31441 17.2493 6.57399 18.2015L1.64118 22.1281C-0.506949 17.6394 -0.546324 13.1214 1.52305 8.57436Z" fill="#FFC107"/>
<path opacity="0.999" fill-rule="evenodd" clip-rule="evenodd" d="M25.0148 26.8838C23.4788 25.5292 21.8709 24.2586 20.1979 23.0775C21.875 21.8933 22.8929 20.2688 23.2516 18.2038H15.0332V12.4966C19.7728 12.4572 24.5102 12.4973 29.2454 12.6169C30.1437 17.495 29.1061 21.8933 26.1326 25.8119C25.779 26.1877 25.4045 26.5455 25.0148 26.8838Z" fill="#448AFF"/>
<path opacity="0.993" fill-rule="evenodd" clip-rule="evenodd" d="M6.57393 18.2036C8.36768 22.6617 11.6562 24.7428 16.4395 24.4467C17.7823 24.2913 19.0697 23.8222 20.1977 23.0774C21.8718 24.2615 23.4775 25.5303 25.0145 26.8836C22.5791 29.0721 19.4739 30.3706 16.2055 30.5674C15.4629 30.6267 14.7168 30.6267 13.9742 30.5674C8.40632 29.9111 4.29528 27.098 1.64111 22.128L6.57393 18.2036Z" fill="#43A047"/>
</svg>
