<svg width="28" height="34" viewBox="0 0 28 34" fill="none" xmlns="http://www.w3.org/2000/svg">
<path d="M23.101 18.0474C23.1486 23.188 27.6111 24.8989 27.6603 24.9208C27.6226 25.0411 26.9475 27.3588 25.3096 29.7522C23.8937 31.8216 22.424 33.8833 20.1093 33.9265C17.8349 33.968 17.1035 32.5773 14.5028 32.5773C11.9029 32.5773 11.0906 33.8833 8.93724 33.968C6.70271 34.0528 5.00111 31.73 3.57349 29.6685C0.65646 25.451 -1.57288 17.7507 1.42044 12.553C2.9074 9.97172 5.56521 8.33738 8.4497 8.29527C10.6438 8.25344 12.7148 9.77129 14.056 9.77129C15.3964 9.77129 17.9131 7.94582 20.5589 8.21379C21.6666 8.26 24.7756 8.66113 26.7719 11.5836C26.6114 11.6834 23.0625 13.7495 23.101 18.0474ZM18.8264 5.42391C20.0126 3.98809 20.811 1.98871 20.5933 0C18.8833 0.0686328 16.8155 1.13941 15.5892 2.57469C14.4899 3.84535 13.5274 5.87973 13.7869 7.82906C15.6931 7.97672 17.6399 6.86055 18.8264 5.42391Z" fill="black"/>
</svg>
