<svg width="66" height="66" viewBox="0 0 66 66" fill="none" xmlns="http://www.w3.org/2000/svg">
<path d="M33.0004 47.5061L21.5879 54.3811C21.0837 54.7019 20.5567 54.8394 20.0067 54.7935C19.4567 54.7477 18.9754 54.5644 18.5629 54.2436C18.1504 53.9227 17.8296 53.5221 17.6004 53.0418C17.3712 52.5615 17.3254 52.0225 17.4629 51.4248L20.4879 38.4311L10.3817 29.6998C9.92333 29.2873 9.63733 28.8171 9.52367 28.2891C9.41 27.7611 9.44392 27.2459 9.62542 26.7436C9.80692 26.2412 10.0819 25.8287 10.4504 25.5061C10.8189 25.1834 11.3231 24.9771 11.9629 24.8873L25.3004 23.7186L30.4567 11.4811C30.6858 10.9311 31.0415 10.5186 31.5237 10.2436C32.0058 9.96855 32.4981 9.83105 33.0004 9.83105C33.5028 9.83105 33.995 9.96855 34.4772 10.2436C34.9593 10.5186 35.315 10.9311 35.5442 11.4811L40.7004 23.7186L54.0379 24.8873C54.6796 24.979 55.1838 25.1852 55.5504 25.5061C55.9171 25.8269 56.1921 26.2394 56.3754 26.7436C56.5587 27.2477 56.5936 27.7638 56.4799 28.2918C56.3662 28.8198 56.0793 29.2891 55.6192 29.6998L45.5129 38.4311L48.5379 51.4248C48.6754 52.0206 48.6296 52.5596 48.4004 53.0418C48.1712 53.524 47.8504 53.9246 47.4379 54.2436C47.0254 54.5626 46.5442 54.7459 45.9942 54.7935C45.4442 54.8412 44.9171 54.7037 44.4129 54.3811L33.0004 47.5061Z" fill="#FFCD29"/>
</svg>
