<svg width="38" height="38" viewBox="0 0 38 38" fill="none" xmlns="http://www.w3.org/2000/svg">
<path d="M29.0655 20.1534C29.1171 25.7347 33.9621 27.5922 34.0156 27.616C33.9746 27.7466 33.2416 30.2629 31.4634 32.8615C29.9261 35.1082 28.3304 37.3466 25.8174 37.3936C23.348 37.4387 22.5538 35.9288 19.7303 35.9288C16.9076 35.9288 16.0256 37.3466 13.6877 37.4387C11.2616 37.5307 9.41415 35.0088 7.86417 32.7706C4.6971 28.1916 2.27668 19.8313 5.52657 14.188C7.14098 11.3855 10.0266 9.6111 13.1583 9.56538C15.5405 9.51996 17.789 11.1679 19.2452 11.1679C20.7004 11.1679 23.4329 9.18597 26.3054 9.47691C27.5081 9.52708 30.8836 9.9626 33.051 13.1356C32.8768 13.244 29.0236 15.4871 29.0655 20.1534ZM24.4244 6.44789C25.7123 4.889 26.5792 2.71825 26.3429 0.559082C24.4862 0.633598 22.2412 1.79616 20.9097 3.35446C19.7163 4.73403 18.6713 6.94279 18.953 9.05921C21.0226 9.21952 23.1363 8.00768 24.4244 6.44789Z" fill="black"/>
</svg>
