<svg width="25" height="25" viewBox="0 0 25 25" fill="none" xmlns="http://www.w3.org/2000/svg">
<path d="M12.5003 12.4998C11.3545 12.4998 10.3736 12.0919 9.55762 11.2759C8.74165 10.4599 8.33366 9.479 8.33366 8.33317C8.33366 7.18734 8.74165 6.20643 9.55762 5.39046C10.3736 4.57449 11.3545 4.1665 12.5003 4.1665C13.6462 4.1665 14.6271 4.57449 15.443 5.39046C16.259 6.20643 16.667 7.18734 16.667 8.33317C16.667 9.479 16.259 10.4599 15.443 11.2759C14.6271 12.0919 13.6462 12.4998 12.5003 12.4998ZM4.16699 20.8332V17.9165C4.16699 17.3262 4.3189 16.7837 4.62272 16.2889C4.92654 15.7941 5.33019 15.4165 5.83366 15.1561C6.91005 14.6179 8.0038 14.2142 9.11491 13.9452C10.226 13.6761 11.3545 13.5415 12.5003 13.5415C13.6462 13.5415 14.7746 13.6761 15.8857 13.9452C16.9969 14.2142 18.0906 14.6179 19.167 15.1561C19.6705 15.4165 20.0741 15.7941 20.3779 16.2889C20.6818 16.7837 20.8337 17.3262 20.8337 17.9165V20.8332H4.16699ZM6.25033 18.7498H18.7503V17.9165C18.7503 17.7255 18.7026 17.5519 18.6071 17.3957C18.5116 17.2394 18.3857 17.1179 18.2295 17.0311C17.292 16.5623 16.3458 16.2108 15.391 15.9764C14.4361 15.742 13.4725 15.6248 12.5003 15.6248C11.5281 15.6248 10.5646 15.742 9.6097 15.9764C8.65484 16.2108 7.70866 16.5623 6.77116 17.0311C6.61491 17.1179 6.48904 17.2394 6.39355 17.3957C6.29807 17.5519 6.25033 17.7255 6.25033 17.9165V18.7498ZM12.5003 10.4165C13.0732 10.4165 13.5637 10.2125 13.9717 9.80452C14.3797 9.39654 14.5837 8.90609 14.5837 8.33317C14.5837 7.76025 14.3797 7.2698 13.9717 6.86182C13.5637 6.45383 13.0732 6.24984 12.5003 6.24984C11.9274 6.24984 11.437 6.45383 11.029 6.86182C10.621 7.2698 10.417 7.76025 10.417 8.33317C10.417 8.90609 10.621 9.39654 11.029 9.80452C11.437 10.2125 11.9274 10.4165 12.5003 10.4165Z" fill="#1D1B20"/>
</svg>
